<?xml version="1.0" encoding="UTF-8"?>
<svg version="1.1" xmlns="http://www.w3.org/2000/svg" width="512" height="512">
<path d="M0 0 C17.92731494 15.98482897 30.95810035 35.16964291 38.8515625 57.89453125 C39.08198242 58.54010986 39.31240234 59.18568848 39.54980469 59.85083008 C45.51551582 78.11370273 44.91999071 96.96854076 44.74505615 115.92346191 C44.71390181 119.66506703 44.70040115 123.40673804 44.68554688 127.1484375 C44.65535348 134.43913488 44.5965873 141.72879574 44.5390625 149.01953125 C62.3590625 149.01953125 80.1790625 149.01953125 98.5390625 149.01953125 C99.44506338 137.06864751 99.44506338 137.06864751 100.33349609 125.11645508 C100.45086426 123.61144138 100.56882594 122.10647379 100.6875 120.6015625 C100.74204346 119.82824585 100.79658691 119.0549292 100.8527832 118.25817871 C101.2616794 113.19910644 101.76126805 108.99485842 105.2265625 105.14453125 C108.64050635 103.4836937 110.92663473 104.10000418 114.5390625 105.01953125 C116.23620605 106.13525391 116.23620605 106.13525391 117.5390625 108.01953125 C117.88586426 111.15771484 117.88586426 111.15771484 117.82226562 115.04296875 C117.81125069 115.74843842 117.80023575 116.45390808 117.78888702 117.18075562 C117.59639867 125.69806625 116.80810325 134.16715784 116.0078125 142.64453125 C115.85024139 144.37038536 115.69331194 146.09629816 115.5369873 147.82226562 C115.12905703 152.30744641 114.71257035 156.79179032 114.29412842 161.27600098 C113.8665669 165.87492178 113.44733457 170.4746015 113.02734375 175.07421875 C112.20594136 184.05673963 111.37547296 193.03839628 110.5390625 202.01953125 C111.27543945 201.99858398 112.01181641 201.97763672 112.77050781 201.95605469 C116.10988692 201.87285981 119.44904799 201.82085968 122.7890625 201.76953125 C123.94792969 201.73601562 125.10679687 201.7025 126.30078125 201.66796875 C127.41582031 201.65507812 128.53085937 201.6421875 129.6796875 201.62890625 C130.70610352 201.60795898 131.73251953 201.58701172 132.79003906 201.56542969 C136.27680095 202.14139568 137.42558507 203.23420352 139.5390625 206.01953125 C140.08743381 209.85813043 140.26578496 212.00817807 137.96735382 215.20682096 C134.74700117 217.61080204 132.0510061 217.57502426 128.18640137 217.52289581 C127.44009995 217.52870958 126.69379854 217.53452334 125.92488194 217.54051328 C123.40988362 217.55517733 120.8958515 217.54119882 118.38085938 217.52746582 C116.56534067 217.53207222 114.74982568 217.53842337 112.93431854 217.5463748 C107.93428504 217.56312717 102.93455555 217.55479499 97.93452072 217.54242992 C92.54657647 217.53340586 87.15868569 217.54733599 81.77075195 217.55834961 C71.21140661 217.57616774 60.65217478 217.57228019 50.09282494 217.56069905 C41.51361532 217.55167794 32.9344376 217.55043499 24.35522461 217.55479431 C23.13576252 217.55540724 21.91630042 217.55602018 20.65988493 217.55665168 C18.18283398 217.55793054 15.70578304 217.55922739 13.22873211 217.56054205 C-10.01710381 217.5719575 -33.2628767 217.55881901 -56.50870228 217.53734058 C-76.46937476 217.51946874 -96.4299542 217.52257258 -116.390625 217.54101562 C-139.55135379 217.5624053 -162.7120273 217.57085877 -185.87276459 217.55856657 C-188.34087625 217.55729233 -190.80898793 217.55603485 -193.27709961 217.55479431 C-195.09879819 217.55386866 -195.09879819 217.55386866 -196.95729876 217.55292431 C-205.52957005 217.54946569 -214.10180638 217.55531075 -222.67407227 217.56471252 C-233.11599054 217.57591276 -243.55778849 217.57293412 -253.99969292 217.55158955 C-259.33078512 217.54105251 -264.66167646 217.53700239 -269.99276733 217.55018616 C-274.86820572 217.56206105 -279.74325609 217.55562889 -284.61865902 217.53427595 C-286.38710106 217.529789 -288.15557555 217.53212272 -289.92399693 217.5417791 C-292.31922954 217.55385998 -294.71311532 217.54155436 -297.10827637 217.52289581 C-297.80253692 217.53226048 -298.49679747 217.54162514 -299.21209621 217.55127358 C-302.50471954 217.49964648 -304.22086089 217.19874753 -306.88922882 215.20682096 C-309.18765996 212.00817807 -309.00930881 209.85813043 -308.4609375 206.01953125 C-306.34746007 203.23420352 -305.19867595 202.14139568 -301.71191406 201.56542969 C-300.68549805 201.58637695 -299.65908203 201.60732422 -298.6015625 201.62890625 C-296.92900391 201.64824219 -296.92900391 201.64824219 -295.22265625 201.66796875 C-293.48435547 201.71824219 -293.48435547 201.71824219 -291.7109375 201.76953125 C-290.53660156 201.78757812 -289.36226563 201.805625 -288.15234375 201.82421875 C-285.2543841 201.87134005 -282.35807332 201.9371182 -279.4609375 202.01953125 C-279.51247482 201.45614013 -279.56401215 200.892749 -279.61711121 200.31228542 C-280.87665614 186.53814133 -282.12855876 172.76332054 -283.37245178 158.98775387 C-283.97415116 152.32572667 -284.57847925 145.66395868 -285.18847656 139.00268555 C-285.77793544 132.56467415 -286.3607506 126.12609166 -286.93911743 119.68707466 C-287.16003799 117.24031011 -287.3832828 114.79375418 -287.60897827 112.34742546 C-289.64211294 90.28133865 -289.64211294 90.28133865 -289.84765625 81.14672852 C-289.87432373 80.03523941 -289.90099121 78.92375031 -289.9284668 77.77857971 C-289.33769226 74.29221941 -288.26299615 73.1191075 -285.4609375 71.01953125 C-281.87747963 70.57159902 -279.5235251 70.44698831 -276.31005859 72.1784668 C-273.77856373 74.69893191 -273.74760647 76.37118301 -273.375 79.9140625 C-273.30415192 80.55092484 -273.23330383 81.18778717 -273.16030884 81.84394836 C-272.90417587 84.23398376 -272.68184006 86.62598124 -272.4609375 89.01953125 C-272.3630896 90.0335199 -272.2652417 91.04750854 -272.16442871 92.09222412 C-271.46580978 99.34420674 -270.81031151 106.59949916 -270.17382812 113.85717773 C-269.83334907 117.73652332 -269.48735986 121.61534966 -269.140625 125.49414062 C-268.92155473 127.96481537 -268.70279339 130.43551754 -268.484375 132.90625 C-268.32973282 134.64209602 -268.32973282 134.64209602 -268.17196655 136.41300964 C-268.07831818 137.48545425 -267.9846698 138.55789886 -267.88818359 139.6628418 C-267.80539154 140.60355026 -267.72259949 141.54425873 -267.63729858 142.51347351 C-267.48500027 144.67760376 -267.4609375 146.85004871 -267.4609375 149.01953125 C-249.6409375 149.01953125 -231.8209375 149.01953125 -213.4609375 149.01953125 C-213.50734375 144.559375 -213.55375 140.09921875 -213.6015625 135.50390625 C-213.62206502 132.6327884 -213.64132482 129.76176421 -213.65625 126.890625 C-213.67991576 122.35999181 -213.70751809 117.82968981 -213.76269531 113.29931641 C-213.96128058 96.5466676 -214.04900272 80.29260696 -209.4609375 64.01953125 C-209.26623871 63.32323608 -209.07153992 62.62694092 -208.87094116 61.9095459 C-199.80282467 30.09327704 -177.80660201 1.97662174 -148.89501953 -14.14575195 C-101.0184331 -39.93403111 -41.74530807 -36.35466745 0 0 Z M-156.4609375 11.01953125 C-157.31171875 11.71691406 -158.1625 12.41429687 -159.0390625 13.1328125 C-180.15551943 31.29429354 -194.78431218 58.11635629 -197.4609375 86.01953125 C-197.59819733 89.8343518 -197.58741489 93.6457237 -197.57446289 97.46264648 C-197.57460892 98.59508286 -197.57475494 99.72751923 -197.5749054 100.89427185 C-197.57421099 104.62224266 -197.56644066 108.35016296 -197.55859375 112.078125 C-197.5567279 114.66886874 -197.55530478 117.25961284 -197.55430603 119.85035706 C-197.55088327 125.96292939 -197.54300875 132.07548101 -197.53295654 138.18804556 C-197.52175651 145.15058803 -197.51627517 152.11313138 -197.51126111 159.07568061 C-197.50082502 173.39030741 -197.48304706 187.70491804 -197.4609375 202.01953125 C-192.8409375 202.01953125 -188.2209375 202.01953125 -183.4609375 202.01953125 C-183.45507126 200.64160904 -183.44920502 199.26368683 -183.44316101 197.8440094 C-183.38570379 184.795972 -183.31282378 171.74809759 -183.22522259 158.70022678 C-183.1804903 151.99376687 -183.14139058 145.28736847 -183.11450195 138.58081055 C-183.0883055 132.0967545 -183.04778958 125.61292548 -182.99775124 119.12901115 C-182.98119234 116.66739688 -182.96961029 114.20574344 -182.96332359 111.7440815 C-182.87237024 79.37442505 -176.77192069 52.01611427 -153.7109375 27.83203125 C-132.21917035 7.13625548 -106.39071039 0.53478107 -77.3515625 0.80859375 C-69.99287486 0.96822249 -63.48920394 1.70886831 -56.4609375 4.01953125 C-55.84428223 4.21289062 -55.22762695 4.40625 -54.59228516 4.60546875 C-29.67957986 12.54030927 -9.68513821 29.12551615 2.6875 52.29296875 C13.40764946 73.34364644 14.02881664 94.79585938 14.20861816 118.00054932 C14.2388527 121.5076526 14.28523026 125.01454292 14.33007812 128.52148438 C14.41516187 135.35405747 14.48141871 142.18667196 14.5390625 149.01953125 C19.1590625 149.01953125 23.7790625 149.01953125 28.5390625 149.01953125 C28.63044501 141.15079381 28.7033892 133.28236106 28.74631119 125.41323471 C28.76694055 121.75689292 28.79478838 118.10094144 28.84082031 114.44482422 C29.23953419 81.89616003 24.9015517 51.36368567 2.5390625 26.01953125 C1.85199219 25.20097656 1.16492188 24.38242187 0.45703125 23.5390625 C-19.02683668 0.89564842 -46.83455563 -12.53674479 -76.4609375 -14.98046875 C-105.91742083 -16.69026463 -133.68433649 -7.67143653 -156.4609375 11.01953125 Z M-140.4609375 37.01953125 C-141.47220703 37.88964844 -141.47220703 37.88964844 -142.50390625 38.77734375 C-157.31658591 52.43694057 -166.40902418 72.75670785 -167.62796974 92.76067734 C-167.88208255 100.50023101 -167.80546865 108.2420609 -167.75390625 115.984375 C-167.74830059 118.47400149 -167.74403509 120.96363133 -167.74104309 123.45326233 C-167.7296707 129.95841855 -167.70026998 136.46336904 -167.66693115 142.96844482 C-167.63062401 150.79892585 -167.61703288 158.62947255 -167.59957123 166.46001434 C-167.57062744 178.31332908 -167.51308678 190.16619372 -167.4609375 202.01953125 C-133.1409375 202.01953125 -98.8209375 202.01953125 -63.4609375 202.01953125 C-61.1509375 190.13953125 -58.8409375 178.25953125 -56.4609375 166.01953125 C-52.46375401 157.02586839 -51.06821969 154.26111162 -42.49508667 150.66366577 C-38.79874808 149.49318166 -35.09560929 149.53792225 -31.24609375 149.5078125 C-30.39035263 149.4898613 -29.53461151 149.4719101 -28.65293884 149.45341492 C-25.94315389 149.39961094 -23.233542 149.36551312 -20.5234375 149.33203125 C-18.67640836 149.29883169 -16.82940198 149.26433961 -14.98242188 149.22851562 C-10.47538592 149.14390203 -5.96839862 149.07694912 -1.4609375 149.01953125 C-1.36716101 141.63787519 -1.29663874 134.25635299 -1.25368881 126.87421608 C-1.23304735 123.44424635 -1.20517602 120.01469179 -1.15917969 116.58496094 C-0.7632351 86.2444226 -4.81366088 61.47683054 -26.2109375 38.70703125 C-58.23565416 8.14026873 -107.64573652 7.88824747 -140.4609375 37.01953125 Z M-266.4609375 165.01953125 C-265.4709375 177.22953125 -264.4809375 189.43953125 -263.4609375 202.01953125 C-246.9609375 202.01953125 -230.4609375 202.01953125 -213.4609375 202.01953125 C-213.4609375 189.80953125 -213.4609375 177.59953125 -213.4609375 165.01953125 C-230.9509375 165.01953125 -248.4409375 165.01953125 -266.4609375 165.01953125 Z M-39.92842102 166.85237122 C-41.99582456 169.77592498 -42.4989221 172.35473453 -43.1640625 175.8671875 C-43.29157898 176.52029404 -43.41909546 177.17340057 -43.55047607 177.84629822 C-43.95183355 179.92240338 -44.33127937 182.00186122 -44.7109375 184.08203125 C-44.9804133 185.48398558 -45.25123315 186.88568227 -45.5234375 188.28710938 C-46.92968812 195.10506033 -46.92968812 195.10506033 -47.4609375 202.01953125 C-11.8209375 202.01953125 23.8190625 202.01953125 60.5390625 202.01953125 C57.62758575 184.38328086 57.62758575 184.38328086 53.5390625 167.01953125 C49.7185004 164.47248985 46.61281284 164.72402212 42.18383789 164.72900391 C40.90534721 164.71892807 40.90534721 164.71892807 39.60102844 164.70864868 C36.77953282 164.68962865 33.95827452 164.6857426 31.13671875 164.68359375 C29.17760621 164.67716905 27.21849465 164.67044094 25.25938416 164.66342163 C21.15117162 164.65143916 17.04304324 164.64774185 12.93481445 164.64892578 C7.66747993 164.64912913 2.40068401 164.62181524 -2.86652279 164.58738136 C-6.9131163 164.56515845 -10.9595792 164.56108681 -15.00622749 164.56214523 C-16.94832785 164.55978277 -18.89043145 164.5509231 -20.83247185 164.5354805 C-23.5474727 164.51591179 -26.2612991 164.52162216 -28.97631836 164.53369141 C-29.78008911 164.52245239 -30.58385986 164.51121338 -31.4119873 164.49963379 C-34.96056005 164.53977476 -37.03966921 164.70661432 -39.92842102 166.85237122 Z M69.5390625 165.01953125 C70.3228125 169.45390625 71.1065625 173.88828125 71.9140625 178.45703125 C72.15688965 179.83689209 72.3997168 181.21675293 72.64990234 182.63842773 C73.80476977 189.13772845 75.04191231 195.59018066 76.5390625 202.01953125 C82.4790625 202.01953125 88.4190625 202.01953125 94.5390625 202.01953125 C95.5290625 189.80953125 96.5190625 177.59953125 97.5390625 165.01953125 C88.2990625 165.01953125 79.0590625 165.01953125 69.5390625 165.01953125 Z " fill="#000000" transform="translate(340.4609375,294.98046875)"/>
<path d="M0 0 C1.27875 -0.01289063 2.5575 -0.02578125 3.875 -0.0390625 C14.1966803 1.02934032 21.44148912 8.33812973 28.39086914 15.35302734 C29.38476704 16.33849405 30.37971185 17.32290582 31.37561035 18.30635071 C34.05414117 20.95802203 36.71677668 23.62511705 39.37584615 26.29628706 C41.60285915 28.5304675 43.83769271 30.75674218 46.07254308 32.9830786 C51.34339861 38.23404502 56.60147584 43.49756211 61.85131836 48.76953125 C67.2607931 54.20141754 72.69003616 59.6129415 78.12955958 65.01472318 C82.81076995 69.66469462 87.48022444 74.32623811 92.14028639 78.99740374 C94.91883924 81.78243596 97.70144002 84.56307686 100.49513435 87.3329277 C103.11814267 89.93467902 105.72610752 92.55063342 108.32328033 95.17816734 C109.73122153 96.59544201 111.15394579 97.99798302 112.57707214 99.40000916 C119.42846967 106.37810728 119.42846967 106.37810728 120.17430115 110.56948853 C120 113.625 120 113.625 118.4375 116.5 C115.48097805 119.07748068 113.91032112 119.625 110 119.625 C106.33512668 117.7407034 103.58768143 115.45918045 100.69172668 112.55050659 C99.86315659 111.72324066 99.03458649 110.89597473 98.1809082 110.04364014 C96.83802734 108.68761688 96.83802734 108.68761688 95.46801758 107.30419922 C94.50545824 106.33943698 93.54244892 105.3751235 92.57902527 104.41122437 C90.51083888 102.34011144 88.44584075 100.26588972 86.3832798 98.18917465 C83.12351822 94.90711099 79.85665004 91.6321832 76.58879089 88.35818481 C71.42388164 83.18190772 66.26367039 78.0009763 61.1054942 72.81799042 C51.85917764 63.52728434 42.60720873 54.24221496 33.35005492 44.9623071 C30.10066848 41.70450122 26.85411184 38.44390839 23.60978472 35.18106437 C21.59539795 33.15605754 19.57900048 31.13306183 17.56208992 29.110569 C16.1771818 27.72051865 14.79481177 26.32794106 13.4125061 24.93530273 C12.59239548 24.11367645 11.77228485 23.29205017 10.92732239 22.44552612 C9.85580036 21.36872495 9.85580036 21.36872495 8.76263142 20.27017021 C6.03910643 17.72814008 4.02559742 17.35104318 0.375 17.125 C-0.44226563 17.0528125 -1.25953125 16.980625 -2.1015625 16.90625 C-10.03380547 18.87327521 -16.91505776 28.38493823 -22.54187012 33.99951172 C-23.47158835 34.92343657 -24.40130658 35.84736141 -25.35919809 36.79928398 C-27.9201057 39.3444792 -30.47795904 41.89272397 -33.03524065 44.4415617 C-35.23350018 46.63176924 -37.4335672 48.82015677 -39.6336382 51.00854445 C-47.50057243 58.83378282 -55.36035711 66.66618546 -63.21875 74.5 C-63.83902769 75.11830279 -64.45930539 75.73660559 -65.09837937 76.37364483 C-77.42173558 88.65784873 -89.74235061 100.94479906 -102.05727386 113.23745728 C-104.75852058 115.93373515 -107.45980506 118.62997519 -110.16113281 121.32617188 C-110.83248774 121.99625613 -111.50384266 122.66634038 -112.19554168 123.35673022 C-123.09306934 134.23285629 -134.00434624 145.09508313 -144.92110628 155.9519012 C-156.13506136 167.10478867 -167.33580508 178.27080987 -178.52391481 189.44962502 C-184.80380728 195.72360248 -191.08951272 201.99151164 -197.39024353 208.24456787 C-202.75006148 213.56386532 -208.09796462 218.89478042 -213.43047839 224.24145555 C-216.15182848 226.96928756 -218.87858824 229.69107627 -221.62082291 232.39792633 C-224.59100817 235.33008963 -227.5335012 238.28855463 -230.47399902 241.25048828 C-231.34789638 242.10467787 -232.22179374 242.95886745 -233.12217283 243.83894157 C-237.92954765 248.43538571 -237.92954765 248.43538571 -239.6072464 254.58190918 C-238.96943493 257.77817056 -238.43364419 259.07087662 -236.1484375 261.3359375 C-235.54386719 261.94050781 -234.93929687 262.54507812 -234.31640625 263.16796875 C-233.67574219 263.77253906 -233.03507812 264.37710937 -232.375 265 C-231.75753906 265.62777344 -231.14007813 266.25554687 -230.50390625 266.90234375 C-227.80851502 269.52964089 -225.47785845 271.40687464 -222.0390625 272.9765625 C-214.43037242 272.09637984 -207.44417291 262.2068229 -202.23086548 256.96939087 C-201.38422943 256.12290367 -200.53759337 255.27641648 -199.66530168 254.40427816 C-197.33669792 252.07510355 -195.01034042 249.74371301 -192.68493724 247.41134381 C-190.16879641 244.8887905 -187.6497156 242.36917608 -185.13098145 239.84921265 C-180.77405664 235.48941014 -176.4189093 231.12783871 -172.06492996 226.76509476 C-165.76823167 220.45581406 -159.46827106 214.14979882 -153.16742711 207.84465854 C-142.94107505 197.61125037 -132.71659453 187.37597466 -122.49365234 177.13916016 C-121.88263433 176.52731433 -121.27161632 175.91546851 -120.64208262 175.28508191 C-116.30300657 170.94010304 -111.96399705 166.59505775 -107.625 162.25 C-102.6580891 157.27615575 -97.69114405 152.30234562 -92.72412109 147.32861328 C-92.1120326 146.71569666 -91.4999441 146.10278004 -90.86930747 145.47129019 C-80.67584117 135.26415441 -70.48042344 125.05896999 -60.28360307 114.85518491 C-53.9948997 108.56199503 -47.70798438 102.2670288 -41.42334418 95.96978121 C-37.1238342 91.66186716 -32.82257724 87.35570281 -28.51992019 83.05093201 C-26.03535144 80.5650141 -23.55163335 78.07826069 -21.0700798 75.58933258 C-18.38514082 72.89644432 -15.69638845 70.20738496 -13.00723267 67.51870728 C-12.21697996 66.72485961 -11.42672725 65.93101194 -10.61252749 65.11310828 C-9.89589949 64.39785463 -9.1792715 63.68260099 -8.44092751 62.94567299 C-7.82024442 62.32406811 -7.19956134 61.70246324 -6.56006968 61.06202185 C-4.49548552 59.16027824 -3.14855232 58.65329568 -0.375 58.125 C7.56259248 59.30093963 14.27353076 68.76725176 19.74221802 74.28060913 C20.58603181 75.12709633 21.4298456 75.97358352 22.2992295 76.84572184 C24.6201257 79.17488777 26.93874096 81.50629632 29.25642657 83.83865619 C31.76437414 86.36129303 34.27536154 88.88090062 36.78607178 91.40078735 C40.56824795 95.19731416 44.3494655 98.99479149 48.12954997 102.79340096 C55.55180024 110.25200831 62.9803184 117.70434478 70.41110229 125.15444946 C71.58268096 126.32913835 72.75425589 127.50383096 73.92582715 128.67852724 C75.7007864 130.45821178 77.47574919 132.2378928 79.25072668 134.01755916 C85.93007566 140.71460405 92.60872454 147.41234667 99.28662109 154.11083984 C99.89658986 154.72268567 100.50655863 155.33453149 101.1350113 155.96491809 C111.03636677 165.89721539 120.93033385 175.83684495 130.82208134 185.77870981 C140.98555972 195.99324418 151.15855063 206.19823618 161.34004295 216.39481509 C167.61683196 222.68157541 173.88580559 228.97592997 180.14498995 235.28021879 C184.43022451 239.59497825 188.72450623 243.90059237 193.02607431 248.19906799 C195.50819467 250.67996816 197.98602214 253.16479875 200.4530983 255.66066742 C203.12587511 258.3644381 205.81771777 261.04869038 208.51174927 263.73129272 C209.29035061 264.52514039 210.06895195 265.31898806 210.87114727 266.13689172 C215.07528136 270.30049835 215.07528136 270.30049835 220.4020977 272.69037819 C223.63956416 272.60890488 224.58373635 271.93451178 226.875 269.6875 C227.54273438 269.03910156 228.21046875 268.39070313 228.8984375 267.72265625 C229.59195312 267.03042969 230.28546875 266.33820313 231 265.625 C231.75539063 264.96371094 232.51078125 264.30242187 233.2890625 263.62109375 C234.01867187 262.96238281 234.74828125 262.30367188 235.5 261.625 C236.1703125 261.026875 236.840625 260.42875 237.53125 259.8125 C239.67100065 256.62563733 239.36255434 254.39968089 239 250.625 C237.32916218 247.95411791 237.32916218 247.95411791 234.82397461 245.66775513 C233.89841766 244.74558197 232.97286072 243.82340881 232.01925659 242.87329102 C230.98056954 241.87372834 229.94158868 240.87447092 228.90234375 239.87548828 C227.8170524 238.80691176 226.7333607 237.7367085 225.65115356 236.66500854 C223.31994778 234.36268326 220.978424 232.07158756 218.62844849 229.78842545 C214.91190226 226.17616746 211.22334137 222.53620428 207.53881836 218.8913269 C198.38309233 209.84268884 189.19165835 200.83054857 179.99182129 191.82678223 C172.84198752 184.8286072 165.70258568 177.82045114 158.59362507 170.78072917 C154.93295915 167.15802346 151.25214669 163.55754865 147.55461121 159.97250009 C145.2568712 157.73561179 142.97812732 155.48009977 140.70415878 153.21907425 C139.64776112 152.17630752 138.58363001 151.14130751 137.51129532 150.11493683 C128.41250676 141.39293529 128.41250676 141.39293529 128.18139648 135.6244812 C128.38912501 133.03787511 128.74352329 131.93568218 130.40272522 129.92581367 C132.59955651 128.13672377 134.18395452 127.82614611 137 127.625 C141.23768224 128.90259208 143.68434182 130.93099302 146.79507446 134.03239441 C147.7315834 134.95899872 148.66809235 135.88560303 149.63298035 136.84028625 C150.65863275 137.87017651 151.68412483 138.90022643 152.70947266 139.93041992 C153.79831244 141.01355535 154.88778081 142.0960592 155.97782898 143.17797852 C158.93313656 146.11534516 161.87880927 149.06219782 164.82230425 152.01139617 C167.28218613 154.4743691 169.74664466 156.93273676 172.21108949 159.39114267 C178.02648529 165.19249123 183.83403848 171.00160888 189.63671875 176.81567383 C195.61839277 182.80882431 201.61272432 188.78909319 207.61352694 194.76308554 C212.76910047 199.89648766 217.91686294 205.03763058 223.05842817 210.18506318 C226.12754984 213.25755276 229.19948482 216.32708545 232.2788887 219.38927269 C235.17547329 222.27036785 238.06214836 225.16104128 240.94158363 228.05927277 C241.99790222 229.11927193 243.05761721 230.17589934 244.1210041 231.22880745 C255.28792822 242.29408427 255.28792822 242.29408427 256.43359375 250.87109375 C256.43488281 251.92425781 256.43617188 252.97742188 256.4375 254.0625 C256.45683594 255.11308594 256.47617187 256.16367187 256.49609375 257.24609375 C255.2198703 265.93848179 249.8837801 271.39401891 243.8125 277.375 C243.09513672 278.11621094 242.37777344 278.85742188 241.63867188 279.62109375 C236.18417162 285.0609445 230.79692403 288.93520486 223.0390625 290.05078125 C222.24242187 290.01339844 221.44578125 289.97601563 220.625 289.9375 C219.81289063 289.91300781 219.00078125 289.88851563 218.1640625 289.86328125 C216 289.625 216 289.625 213 288.625 C212.94175049 289.96824341 212.94175049 289.96824341 212.88232422 291.33862305 C212.15863565 306.50789508 210.83384258 321.63334241 209.52587891 336.76098633 C209.25498974 339.90137634 208.99174276 343.04227133 208.73486328 346.18383789 C208.42080085 350.02462448 208.0943217 353.86416233 207.75878525 357.70313072 C207.63410669 359.1527868 207.51370913 360.60281805 207.39780045 362.05320168 C207.23566391 364.07007563 207.05594817 366.08551297 206.87548828 368.10083008 C206.77857697 369.24344803 206.68166565 370.38606598 206.58181763 371.56330872 C205.95413708 374.86634384 204.97180189 376.91929541 203 379.625 C199.90826248 381.17086876 197.40570448 380.91859521 194 380.625 C191.79504395 379.01856995 191.79504395 379.01856995 190 376.625 C189.55554199 373.59458923 189.55554199 373.59458923 189.65429688 370.01538086 C189.66982353 369.36054938 189.68535019 368.70571791 189.70134735 368.03104305 C189.95529443 359.79021749 190.74777435 351.58257906 191.53125 343.37890625 C191.68889117 341.670795 191.84581865 339.96261775 192.0020752 338.25437927 C192.41061944 333.80353981 192.82660756 329.35343296 193.24493408 324.90350342 C193.91581975 317.75975103 194.5777841 310.61518358 195.23472595 303.47013664 C195.46399881 300.99274486 195.69811533 298.51584562 195.93273926 296.03895569 C196.07447311 294.51109392 196.21604264 292.98321689 196.35742188 291.45532227 C196.42287704 290.77829254 196.48833221 290.10126282 196.55577087 289.40371704 C196.7312877 287.4797843 196.86600506 285.55226975 197 283.625 C197.15894997 282.39947639 197.31789993 281.17395277 197.48166656 279.91129208 C197.43750421 275.08386655 195.13530798 272.80383521 191.8700695 269.46241903 C191.10744364 268.7230959 190.34481777 267.98377276 189.55908203 267.2220459 C188.35851764 266.01122841 188.35851764 266.01122841 187.13369942 264.77594995 C184.44372826 262.07278905 181.72613696 259.39923391 179.0078125 256.72460938 C177.07285096 254.79635821 175.1439478 252.86208761 173.21478271 250.92803955 C169.05669689 246.76576101 164.88422727 242.61836854 160.70159912 238.48075867 C154.6543043 232.49850964 148.62924932 226.49426338 142.60937428 220.48443776 C132.84175382 210.73432178 123.05640587 201.0022009 113.25976562 191.28125 C103.74388377 181.83881213 94.23644947 172.38799943 84.74023438 162.92578125 C84.15478324 162.3424319 83.56933211 161.75908256 82.96614003 161.15805596 C80.02912464 158.23148095 77.09227436 155.30474032 74.15550613 152.37791729 C49.79587944 128.10121023 25.40742508 103.85364863 1 79.625 C-2.03251548 80.98572854 -4.15893321 82.52251227 -6.52475452 84.84779263 C-7.20911416 85.51583619 -7.89347379 86.18387975 -8.5985716 86.87216705 C-9.34244632 87.60822506 -10.08632105 88.34428307 -10.85273743 89.10264587 C-11.64906985 89.88315813 -12.44540227 90.66367039 -13.26586598 91.46783453 C-15.94164123 94.09335357 -18.61015275 96.72612973 -21.27856445 99.35913086 C-22.70441843 100.76101162 -24.130278 102.16288678 -25.55657921 103.56431251 C-43.517249 121.21302196 -61.39788315 138.9435633 -79.26371479 156.68820858 C-81.58981494 158.99825218 -83.91605464 161.30815514 -86.24243164 163.61791992 C-87.109701 164.47901647 -87.109701 164.47901647 -87.99449094 165.35750891 C-97.35416261 174.64839356 -106.75138524 183.90034928 -116.16394398 193.13761704 C-125.83474924 202.62980504 -135.46711878 212.15971546 -145.06437653 221.72626597 C-150.45100021 227.09361112 -155.853341 232.44275767 -161.29998207 237.74925041 C-165.94062234 242.27052808 -170.54563392 246.82462323 -175.10849366 251.42443972 C-177.43571378 253.76837533 -179.78062502 256.08732878 -182.16220856 258.37618256 C-192.85326799 267.93805308 -192.85326799 267.93805308 -197.87872887 280.77615547 C-197.85713151 284.77743544 -197.30000808 288.55797783 -196.43850076 292.45824635 C-195.70738077 296.07091263 -195.51096262 299.72008695 -195.24609375 303.390625 C-195.116174 304.81022462 -194.98314641 306.22954654 -194.84570312 307.6484375 C-194.77875244 308.34549805 -194.71180176 309.04255859 -194.64282227 309.76074219 C-194.50523501 311.1775146 -194.36655199 312.59418101 -194.22680664 314.01074219 C-193.48074191 321.63331254 -192.83100545 329.26444657 -192.59765625 336.921875 C-192.55261963 338.11651367 -192.50758301 339.31115234 -192.46118164 340.54199219 C-193 343.625 -193 343.625 -195.29858398 346.04785156 C-198 347.625 -198 347.625 -201.625 347.5625 C-206.14285714 346.30753968 -206.14285714 346.30753968 -208 343.625 C-208.87754254 340.99237239 -209.23717689 338.99454613 -209.48071289 336.26464844 C-209.56072037 335.38653503 -209.64072784 334.50842163 -209.72315979 333.60369873 C-209.80549362 332.6568219 -209.88782745 331.70994507 -209.97265625 330.734375 C-210.06002548 329.75639954 -210.14739471 328.77842407 -210.2374115 327.77081299 C-210.42151889 325.69974154 -210.60380832 323.6285078 -210.78442383 321.55712891 C-211.06023678 318.40089892 -211.3431584 315.2453649 -211.62695312 312.08984375 C-211.80511614 310.0755587 -211.98286389 308.06123687 -212.16015625 306.046875 C-212.24451431 305.10809509 -212.32887238 304.16931519 -212.41578674 303.2020874 C-212.83697833 298.32064713 -213.09028006 293.52447759 -213 288.625 C-213.99 288.955 -214.98 289.285 -216 289.625 C-218.1640625 289.86328125 -218.1640625 289.86328125 -220.625 289.9375 C-221.42164063 289.97488281 -222.21828125 290.01226562 -223.0390625 290.05078125 C-231.98100509 288.76493462 -237.71252024 283.67776435 -243.8125 277.375 C-244.54919922 276.64925781 -245.28589844 275.92351562 -246.04492188 275.17578125 C-251.32899122 269.82011205 -255.32999169 264.84211112 -256.53125 257.28125 C-256.5209375 256.2396875 -256.510625 255.198125 -256.5 254.125 C-256.5103125 253.0834375 -256.520625 252.041875 -256.53125 250.96875 C-255.06288856 241.72671035 -249.08923245 236.14056747 -242.70272827 229.81306458 C-241.74035484 228.84535978 -240.77885234 227.8767882 -239.81814253 226.90743178 C-237.18745304 224.25816618 -234.54449798 221.62144761 -231.89926839 218.98671067 C-229.04395002 216.13839864 -226.20017493 213.27860031 -223.3548584 210.42030334 C-217.78324101 204.82706414 -212.20081161 199.24473894 -206.61430471 193.6663752 C-202.07259585 189.13097132 -197.53462764 184.5918565 -192.99928665 180.05008507 C-192.35328131 179.40317807 -191.70727597 178.75627107 -191.04169471 178.08976084 C-189.72925451 176.7754694 -188.41681998 175.46117231 -187.10439105 174.14686962 C-174.80142047 161.82732662 -162.48583828 149.52045256 -150.16615827 137.21762242 C-138.90277883 125.96893636 -127.65412323 114.70565997 -116.41252045 103.43521444 C-104.8618821 91.85516207 -93.30204063 80.28437439 -81.73191512 68.7237913 C-80.42246539 67.41536409 -79.11302961 66.10692293 -77.80360794 64.79846764 C-76.83728585 63.83286013 -76.83728585 63.83286013 -75.85144209 62.84774539 C-71.31979472 58.31825966 -66.79415161 53.78282814 -62.27088547 49.24497414 C-56.75463379 43.71118036 -51.22961458 38.18632425 -45.69322984 32.67267016 C-42.87051098 29.86107678 -40.05189592 27.04567912 -37.24406815 24.21920776 C-34.66998594 21.62825515 -32.08449539 19.04927013 -29.48970504 16.47906145 C-28.11704601 15.11355535 -26.75657075 13.73583464 -25.39667356 12.35761863 C-17.98825052 5.05973165 -10.64871554 -0.10734592 0 0 Z " fill="#000000" transform="translate(256,-0.625)"/>
<path d="M0 0 C5.21418575 3.46613497 8.33902015 7.35872272 11 13 C11 13.99 11 14.98 11 16 C26.84 16 42.68 16 59 16 C59.33 14.35 59.66 12.7 60 11 C63.93453972 3.81163677 69.56779556 0.06836207 76.8125 -3.3125 C86.46833761 -5.39513164 94.63842645 -3.96823302 103.00390625 1.25 C109.31985127 6.05175518 112.7628057 13.26122342 114 21 C114.33232982 25.32028765 113.91654042 28.5441025 112.4375 32.5625 C111.02677085 36.5018946 110.86203674 38.88582512 112 43 C114.67030528 52.68483856 114.60555258 60.81717368 110.00390625 69.984375 C106.09216508 76.10239233 99.85242587 80.43757884 92.875 82.375 C84.06645779 83.79573261 75.8816866 82.75455183 68.25 77.875 C63.45450231 74.14769374 59.9086593 68.72597789 58 63 C42.82 63 27.64 63 12 63 C10.68 65.64 9.36 68.28 8 71 C1.38192232 78.69127946 -5.36409057 82.38556394 -15.375 83.3125 C-23.06217649 82.64981237 -30.4034721 80.51442725 -36 75 C-41.98062861 67.77628461 -44.81891077 60.49936498 -44 51 C-43.50768844 49.30395963 -42.98466584 47.61664655 -42.4375 45.9375 C-40.64165209 40.3212398 -41.41614251 36.9137551 -43.125 31.3125 C-45.15987681 23.15745936 -43.53956511 15.47764412 -39.50390625 8.22265625 C-30.50707807 -5.07395475 -13.57584463 -7.48293142 0 0 Z M-25 16 C-27.33357297 19.38744463 -28 21.31797568 -28 25.4375 C-27.08355551 28.70233351 -26.43871259 29.95144721 -24.4375 32.5 C-22.4377574 35.1119087 -21.98294224 36.09552348 -21.375 39.5 C-22.08229461 43.46084982 -23.3872356 45.22199159 -25.80859375 48.3125 C-27.62197945 50.88096762 -28 52.88021628 -28 56 C-26.32233428 60.66018256 -24.19252986 63.36748125 -20 66 C-16.2847218 67.18572709 -14.5602694 67.20169698 -10.875 65.875 C-4.95069713 62.01132421 -3.37754111 57.73657524 -1.7109375 51.109375 C-1 49 -1 49 1 48 C3.13853257 47.89280725 5.28044846 47.85110638 7.42163086 47.83886719 C8.40970482 47.83141983 8.40970482 47.83141983 9.41773987 47.82382202 C11.60011839 47.8091986 13.78242426 47.80239867 15.96484375 47.796875 C17.47937523 47.79112433 18.99390668 47.78536659 20.50843811 47.77960205 C23.68523498 47.769092 26.86200654 47.76324916 30.03881836 47.75976562 C34.112336 47.75427639 38.18552013 47.73023957 42.25893307 47.70179367 C45.38758833 47.68318498 48.51616291 47.67796268 51.64486885 47.67642975 C53.14680368 47.6733994 54.64873696 47.66535799 56.1506176 47.65224457 C58.25032953 47.63521788 60.34922195 47.63705524 62.44897461 47.64355469 C64.24195229 47.63808624 64.24195229 47.63808624 66.07115173 47.63250732 C69 48 69 48 70.86329651 49.37823486 C72.33290233 51.47496061 72.75553335 53.38191117 73.3125 55.875 C74.78661594 61.13421573 76.33106246 63.16201836 81 66 C84.75005041 67.2500168 86.39783556 67.2167792 90.125 65.875 C94.23862858 63.19219875 96.43568428 60.76818927 97.9375 56.0625 C98.03082811 51.48942247 96.27911936 48.46861852 93.3125 45.0625 C91.27910786 41.86716949 91.49642516 39.71386444 92 36 C93.15223797 34.13742178 94.45667166 32.47558481 95.80859375 30.75390625 C97.76502392 27.87378445 98 25.42926755 98 22 C96.70339826 18.11019479 95.35526323 16.30681824 92.25 13.625 C88.38918695 11.69459348 86.26568014 11.39061712 82 12 C77.06772702 14.46613649 74.99815142 16.90471388 73 22 C72.649375 23.2375 72.29875 24.475 71.9375 25.75 C71 29 71 29 69 31 C66.19813538 31.26069641 66.19813538 31.26069641 62.57836914 31.2746582 C61.91965317 31.27976913 61.26093719 31.28488007 60.58226013 31.29014587 C58.39980033 31.30407195 56.21765526 31.30308286 54.03515625 31.30078125 C52.5206236 31.30466667 51.00609203 31.30900101 49.49156189 31.31376648 C46.31473257 31.32123525 43.13801436 31.3209328 39.96118164 31.31567383 C35.88763342 31.3098796 31.81453995 31.32680547 27.74106693 31.3500185 C24.61239456 31.36474239 21.48383203 31.36562938 18.35513115 31.36250877 C16.85320574 31.36302271 15.3512743 31.36827404 13.8493824 31.37832069 C11.74962864 31.39064173 9.65076464 31.38392053 7.55102539 31.37231445 C6.35570694 31.37294388 5.16038849 31.3735733 3.92884827 31.3742218 C1 31 1 31 -0.86109924 29.63664246 C-2.42916995 27.38326693 -2.81549881 25.24011285 -3.375 22.5625 C-4.3318585 18.73000324 -4.74253988 17.26373963 -7.5625 14.375 C-14.08620955 10.69495871 -19.18652164 10.97926869 -25 16 Z " fill="#000000" transform="translate(221,168)"/>
</svg>
