<?xml version="1.0" encoding="UTF-8"?>
<svg version="1.1" xmlns="http://www.w3.org/2000/svg" width="512" height="512">
<path d="M0 0 C1.44004395 0.29801514 1.44004395 0.29801514 2.90917969 0.60205078 C63.89610096 13.36742236 115.62404547 49.13853997 150 101 C153.56768825 106.53782797 156.86491697 112.20722456 160 118 C160.37721191 118.69689941 160.75442383 119.39379883 161.14306641 120.11181641 C171.84503951 140.31428406 179.41488806 163.42848342 183 186 C183.16121338 186.9892749 183.16121338 186.9892749 183.32568359 187.99853516 C188.42125727 220.08385074 188.81127534 260.48208395 176 291 C173.1875 293.25 173.1875 293.25 170 294 C166.56258815 293.39339791 164.70379856 292.75517667 162.31445312 290.19140625 C160.74713052 287.57842562 160.75097953 286.48358631 161.15625 283.5 C161.33414063 282.18128906 161.33414063 282.18128906 161.515625 280.8359375 C162.5429731 274.82098005 163.86098512 268.87739272 165.18359375 262.921875 C170.88095765 236.62634929 170.30065037 206.0788824 164 180 C163.78037598 179.06607422 163.56075195 178.13214844 163.33447266 177.16992188 C158.83524428 158.43428157 152.08440096 140.9710525 143 124 C142.67918457 123.39704102 142.35836914 122.79408203 142.02783203 122.17285156 C135.5667027 110.14314098 127.80553965 99.2090563 119.125 88.6875 C118.67278076 88.1298999 118.22056152 87.5722998 117.75463867 86.99780273 C115.30707757 84.10299012 113.78234585 82.48281617 110 82 C107.61245783 82.36857882 107.61245783 82.36857882 105.09765625 83.15234375 C104.13520996 83.43021729 103.17276367 83.70809082 102.18115234 83.99438477 C100.63741943 84.46122681 100.63741943 84.46122681 99.0625 84.9375 C97.46462646 85.41304321 97.46462646 85.41304321 95.83447266 85.89819336 C86.12394696 88.84909262 76.64933588 92.29840949 67.24072266 96.09619141 C65.28493614 96.88506934 63.32084817 97.65330345 61.35546875 98.41796875 C19.07495105 115.52076416 -23.75944909 147.34586778 -51 184 C-52.1977941 185.5177391 -53.39561547 187.0354568 -54.59399414 188.55273438 C-60.49681123 196.08566047 -65.87056288 203.92377848 -71 212 C-71.39123047 212.61198242 -71.78246094 213.22396484 -72.18554688 213.85449219 C-85.38736798 234.73357864 -95.64142248 257.45796596 -103 281 C-103.52943934 282.65901655 -104.05936912 284.31787669 -104.58984375 285.9765625 C-105.7541231 289.64301092 -106.88824261 293.31730364 -108 297 C-106.80375 296.79375 -105.6075 296.5875 -104.375 296.375 C-88.80021258 294.71499131 -73.16162347 300.56718728 -61.03345108 310.12887192 C-58.64758962 312.32427874 -56.72840383 314.7113732 -54.71261597 317.2505188 C-46.32251838 327.45561068 -38.87201913 335.17995575 -25.20955086 336.61147881 C-18.42818799 337.10460913 -11.66135878 337.13071772 -4.86646891 337.02102423 C-1.58129506 336.98189678 1.7017322 337.01425117 4.98686802 337.04603493 C12.75433696 337.12082283 20.51579252 337.08708218 28.28271484 336.97802734 C36.22307882 336.86805245 44.14955156 336.92429569 52.08909976 337.06604278 C58.97506182 337.18404891 65.85684857 337.20608516 72.74361432 337.15287125 C76.82674387 337.12161587 80.90269473 337.12102038 84.98513412 337.20995712 C99.68705262 337.49235535 112.52395449 337.60477018 123.77980292 327.14007533 C127.39900346 323.57132318 130.67034761 319.74355373 133.89993286 315.82400513 C143.52177846 304.15188412 157.77794455 298.07812502 172.6171875 296.21875 C191.30855381 295.01007042 208.19082698 300.41442687 222.39453125 312.5546875 C233.85479235 323.31049477 241.68910864 337.76654711 242.43359375 353.6484375 C242.45675257 355.55715162 242.45765999 357.46625185 242.4375 359.375 C242.43065186 360.37942139 242.42380371 361.38384277 242.41674805 362.41870117 C242.18047682 373.37478382 239.34308374 382.11986973 234.1484375 391.78125 C233.76945312 392.5134375 233.39046875 393.245625 233 394 C232.35224609 395.24330078 232.35224609 395.24330078 231.69140625 396.51171875 C230.72162214 398.97832737 230.72162214 398.97832737 231.94140625 401.11328125 C232.47636719 401.83902344 233.01132812 402.56476563 233.5625 403.3125 C242.75335159 417.70093663 243.74538019 433.7320214 241.55859375 450.35546875 C240.92311478 453.06125028 240.09285855 455.44481115 239 458 C238.52433594 459.12535156 238.04867188 460.25070312 237.55859375 461.41015625 C233.95121318 469.43987022 229.32939356 475.84765242 223 482 C222.07960938 482.95132813 222.07960938 482.95132813 221.140625 483.921875 C209.22211104 495.4329184 193.12095999 499.52507493 176.99609375 499.34741211 C159.13523731 498.80881343 144.12383335 491.21157067 131.56347466 478.71611595 C129.97093927 476.96810209 128.68021243 475.16041724 127.3497467 473.2077179 C123.10799172 467.44890112 118.7059124 462.96181643 111.61411667 461.12124252 C102.1402908 459.77859724 92.59420452 459.89426805 83.04498172 460.018049 C78.84074996 460.06018579 74.63693513 460.0273663 70.43263245 460.00666809 C63.37708905 459.9840484 56.32392412 460.02347367 49.26879883 460.09936523 C41.14581516 460.18586625 33.0280165 460.16816261 24.90501064 460.09588641 C17.04540771 460.02885796 9.18773686 460.04144867 1.32805061 460.08764076 C-1.99641142 460.10551696 -5.31895748 460.09531437 -8.64328194 460.06130028 C-28.16276474 459.10801863 -28.16276474 459.10801863 -45.13176632 466.89657307 C-47.76208606 469.74599301 -49.91140174 472.7427844 -52 476 C-61.50070233 488.26306659 -76.53727892 497.02489984 -92 499 C-110.24849125 500.33765 -127.50018613 497.10434677 -142.21875 485.60546875 C-155.69182685 473.85354046 -163.78980732 458.47257816 -165.28515625 440.58984375 C-165.66947811 425.76838758 -162.07270971 413.76496283 -155 401 C-154.32553748 399.67059317 -153.65491112 398.33914661 -153 397 C-153.721875 396.113125 -154.44375 395.22625 -155.1875 394.3125 C-163.98895865 381.93544877 -166.88024277 364.87218657 -164.71142578 350.02441406 C-161.41582056 331.75481733 -152.01787068 318.33059695 -137.65234375 306.7890625 C-135 305 -135 305 -133.03369141 304.26586914 C-129.6922152 302.98083374 -127.55599826 302.04483518 -125.83178711 298.8046875 C-124.89864137 295.95377548 -124.17539598 293.11022312 -123.5 290.1875 C-122.92673431 288.00262549 -122.34848086 285.81905448 -121.765625 283.63671875 C-121.47623047 282.52731934 -121.18683594 281.41791992 -120.88867188 280.27490234 C-110.79986029 243.09596866 -91.59864691 208.24096936 -68 178 C-67.29230469 177.07832031 -66.58460938 176.15664062 -65.85546875 175.20703125 C-61.37916619 169.47262328 -56.53720986 164.12996642 -51.5859375 158.80859375 C-49.51493555 156.5592729 -47.52592419 154.2792425 -45.5625 151.9375 C-41.26249842 146.97912497 -36.33416541 142.67821517 -31.45068359 138.31103516 C-30.18548777 137.16763199 -28.94406576 135.99803173 -27.70703125 134.82421875 C-9.25059463 117.47843495 12.71540044 103.82910218 35 92 C35.66854004 91.64309082 36.33708008 91.28618164 37.02587891 90.91845703 C56.46073819 80.62315586 77.1241622 73.75422497 98 67 C83.76804369 54.22644204 67.95440041 43.81628822 51 35 C50.31631348 34.63406738 49.63262695 34.26813477 48.92822266 33.89111328 C46.86594634 32.80304996 44.784052 31.77019494 42.6875 30.75 C41.77363525 30.26309692 41.77363525 30.26309692 40.84130859 29.76635742 C34.8083975 26.98175114 30.02263259 28.89449722 24 31 C23.13608643 31.28488281 22.27217285 31.56976563 21.38208008 31.86328125 C-6.6025711 41.27937475 -33.68554633 54.21115101 -58 71 C-58.61133789 71.41991211 -59.22267578 71.83982422 -59.85253906 72.27246094 C-72.34259364 80.89766844 -84.25750038 90.13745303 -95.3359375 100.51953125 C-97.51750969 102.55076049 -99.7294688 104.50801566 -102 106.4375 C-110.31345887 113.67936958 -117.89378658 121.54503045 -124.73828125 130.18359375 C-126.72575423 132.65849534 -128.78448019 135.04797944 -130.88061523 137.43066406 C-175.0302135 188.0267806 -200.10884376 257.59933621 -205 324 C-205.10957031 325.30364502 -205.21914062 326.60729004 -205.33203125 327.95043945 C-207.56716041 347.63667525 -207.56716041 347.63667525 -201.8203125 365.78125 C-198.60782231 369.49929301 -194.98411361 372.57232946 -191.03417969 375.48193359 C-189.20026329 376.85054763 -187.57850024 378.26530598 -185.9453125 379.86328125 C-180.77736115 384.91621885 -175.14574778 389.33414024 -169.32543945 393.60327148 C-166.37737703 395.7929605 -163.8512935 397.79583818 -162 401 C-162.12028769 404.42819926 -162.3332636 406.94725831 -164.1875 409.875 C-166.91613852 411.5686377 -168.77291357 411.93794065 -172 412 C-183.51147112 407.03426736 -192.9818487 396.54899892 -202 388 C-202.75265137 387.29037109 -202.75265137 387.29037109 -203.52050781 386.56640625 C-211.52170185 378.97170374 -218.40750527 370.83349966 -225 362 C-225.41459473 361.45682129 -225.82918945 360.91364258 -226.25634766 360.35400391 C-247.19432629 332.89313537 -260.14354833 300.67029819 -267 267 C-267.24991699 265.80503906 -267.24991699 265.80503906 -267.50488281 264.5859375 C-278.54316741 209.18883218 -265.23322663 146.87904944 -234.18945312 100.05395508 C-232.81002012 98.02347444 -231.41109748 96.00858921 -230 94 C-229.52981445 93.32775391 -229.05962891 92.65550781 -228.57519531 91.96289062 C-221.19277208 81.51653683 -212.92953217 72.14292173 -204 63 C-203.0821875 62.05382812 -202.164375 61.10765625 -201.21875 60.1328125 C-193.3269855 52.11293494 -193.3269855 52.11293494 -189.0625 51.75 C-186.02098609 51.99828685 -184.4255178 52.18086165 -182 54 C-180.50207318 56.6392044 -179.9847012 58.40334666 -180.0625 61.4375 C-181.92007382 66.51486844 -185.66392781 69.77479404 -189.6875 73.1875 C-226.95901856 105.23403932 -249.07053603 158.93445392 -253 207 C-255.30472264 245.35099434 -248.74072697 282.1754429 -232.4375 317 C-232.07358154 317.77754639 -231.70966309 318.55509277 -231.3347168 319.35620117 C-228.88300725 324.46580799 -226.10183187 329.25801699 -223 334 C-222.89510254 332.73446289 -222.89510254 332.73446289 -222.78808594 331.44335938 C-221.27338452 313.49098185 -219.56346012 295.68532058 -216 278 C-215.80599609 277.03707031 -215.61199219 276.07414062 -215.41210938 275.08203125 C-203.42905641 217.48729413 -176.32585837 160.84886241 -136.265625 117.4765625 C-134.41767481 115.45656178 -132.62825533 113.40728519 -130.84375 111.33203125 C-126.51491147 106.37388001 -121.90496409 101.71306265 -117.25 97.0625 C-116.36183594 96.1751416 -115.47367188 95.2877832 -114.55859375 94.37353516 C-108.62449136 88.49482062 -102.60159521 83.11597474 -96 78 C-94.18556464 76.43974783 -92.37320007 74.87708549 -90.5625 73.3125 C-77.68853416 62.57862199 -63.58870476 53.23100774 -49 45 C-48.19900879 44.54415527 -47.39801758 44.08831055 -46.57275391 43.61865234 C-4.88408155 20 -4.88408155 20 6 20 C6 19.34 6 18.68 6 18 C4.70835937 17.86722656 3.41671875 17.73445313 2.0859375 17.59765625 C-1.11969475 17.24390119 -4.28481282 16.80432596 -7.4609375 16.24609375 C-60.13627467 7.31595682 -115.90682257 19.06147854 -160.125 49.125 C-164.75223326 52.12452755 -167.53777828 53.14994141 -173 52 C-175.5625 49.9375 -175.5625 49.9375 -177 47 C-177.125 43.5 -177.125 43.5 -176 40 C-171.62044951 35.89585069 -166.74708403 32.78641338 -161.625 29.6875 C-160.83697998 29.20966064 -160.04895996 28.73182129 -159.23706055 28.23950195 C-136.19321942 14.44645024 -111.27163203 5.42014152 -85 0 C-84.20432617 -0.16806152 -83.40865234 -0.33612305 -82.58886719 -0.50927734 C-56.70712938 -5.70608904 -25.78726541 -5.66993805 0 0 Z M-130 322 C-130.55945313 322.41765625 -131.11890625 322.8353125 -131.6953125 323.265625 C-136.61307647 327.14022692 -139.88042489 331.60177873 -143 337 C-143.39316406 337.67675781 -143.78632813 338.35351562 -144.19140625 339.05078125 C-149.40982482 349.27580067 -150.44159416 362.08762826 -147 373 C-144.30952877 379.37434722 -141.27557943 385.49612526 -137.125 391.0625 C-135.02315756 393.96798808 -134 395.43634145 -134 399 C-135.41870002 402.75538242 -137.47003489 405.63748691 -139.9375 408.75 C-147.38355718 418.50562827 -150.04824191 431.19005025 -148.53515625 443.27734375 C-145.6123326 458.14747574 -137.23463146 468.51917592 -125 477 C-115.49391563 483.22919024 -103.92964827 484.28669764 -92.89453125 482.49609375 C-75.05367322 478.53899596 -63.95512036 465.1160196 -51.61132812 452.57519531 C-50.91201172 451.86717773 -50.21269531 451.15916016 -49.4921875 450.4296875 C-48.86683105 449.79272949 -48.24147461 449.15577148 -47.59716797 448.49951172 C-44.45548106 445.54991817 -41.82172183 445.82497916 -37.61898804 445.71824646 C-36.95634308 445.70045846 -36.29369811 445.68267045 -35.610973 445.66434342 C-33.37925481 445.60627401 -31.14743786 445.55571279 -28.91552734 445.50561523 C-27.31872333 445.46661965 -25.72192162 445.42752944 -24.12512207 445.38835144 C-9.46794341 445.04085972 5.1916406 444.83758985 19.85190773 444.67437649 C29.69606312 444.56212258 39.53528027 444.40526369 49.37646484 444.13452148 C57.97232324 443.89809353 66.56469716 443.74917387 75.16374624 443.70120579 C79.70704167 443.6730472 84.24080663 443.60492388 88.78108597 443.43191338 C119.58627018 442.3053131 119.58627018 442.3053131 131.07170284 452.81003076 C135.63929863 457.27925054 139.59765138 462.21560047 143.55979538 467.21750069 C148.62337474 472.99136324 155.13509328 477.0562528 162.25 479.875 C163.20390625 480.26429688 164.1578125 480.65359375 165.140625 481.0546875 C176.45856746 484.79641165 188.56319487 483.56370649 199.44140625 478.96875 C212.3075641 472.3454757 220.59965436 461.62978856 225 448 C227.90881348 436.3065698 226.40556816 424.32480737 220.796875 413.7265625 C219.19959074 411.08801066 217.49068269 408.61670502 215.5703125 406.203125 C213.3302042 403.34287372 212.08053469 401.32213874 211.1875 397.75 C212.27225942 392.74341807 214.85960446 389.71403628 217.9609375 385.703125 C225.41140433 375.82626093 227.03893979 365.16858225 226 353 C223.31575519 339.56352456 216.77017634 328.34040617 205.6171875 320.27734375 C194.51100943 313.19236809 182.98740273 311.41666369 170 313 C152.62673955 317.45377582 141.24236426 330.57057367 129.15722656 342.96728516 C128.02945801 344.11269775 128.02945801 344.11269775 126.87890625 345.28125 C126.2041626 345.97283203 125.52941895 346.66441406 124.83422852 347.37695312 C121.37265508 350.43998256 117.95053762 350.12933526 113.52946472 350.14044189 C112.86959936 350.14341302 112.209734 350.14638414 111.52987272 350.1494453 C109.31441733 350.15813049 107.09901599 350.15964039 104.88354492 350.16113281 C103.29679753 350.16576112 101.71005125 350.17078579 100.12330627 350.17617798 C95.80916948 350.18930286 91.49504825 350.19574712 87.18089461 350.20018864 C84.48576571 350.20311924 81.79064106 350.20722403 79.0955143 350.21169281 C70.66359546 350.22536802 62.23168634 350.23503454 53.79975718 350.2388947 C44.06538886 350.24337556 34.33116094 350.26092463 24.59683532 350.2898953 C17.07317351 350.31150969 9.54955122 350.32159885 2.0258587 350.32293582 C-2.46800773 350.32398403 -6.96174219 350.32989519 -11.45557594 350.34775543 C-15.6835209 350.36423192 -19.9112346 350.36639372 -24.13920021 350.35761642 C-25.68958149 350.35684582 -27.23997519 350.36119189 -28.79032516 350.37107468 C-30.90999624 350.38379245 -33.02884804 350.37791913 -35.14851379 350.36749268 C-36.92633853 350.36969252 -36.92633853 350.36969252 -38.74007893 350.3719368 C-45.3231938 349.62084418 -49.30631795 346.10041184 -53.703125 341.44921875 C-54.77723097 340.3468953 -55.85145348 339.2446854 -56.92578125 338.14257812 C-58.58528048 336.42128123 -60.2412076 334.69669063 -61.89404297 332.96899414 C-72.78254147 321.62640131 -83.1474398 313.26865678 -99.46191406 312.54736328 C-110.82291319 312.3184441 -120.8854501 314.83856794 -130 322 Z " fill="#000000" transform="translate(270,8)"/>
<path d="M0 0 C4.0743356 0.84881992 5.54405875 2.30225596 8 5.625 C8.625 8.625 8.625 8.625 8 11.625 C5.54405875 14.94774404 4.0743356 16.40118008 0 17.25 C-4.0743356 16.40118008 -5.54405875 14.94774404 -8 11.625 C-8.625 8.625 -8.625 8.625 -8 5.625 C-5.54405875 2.30225596 -4.0743356 0.84881992 0 0 Z " fill="#000000" transform="translate(474,354.375)"/>
<path d="M0 0 C2.375 1.0625 2.375 1.0625 4 3 C4.87281149 6.42890226 5.32922829 8.89259577 4.3125 12.3125 C2.62884529 14.47719891 1.64816011 15.21270916 -1 16 C-4.35205511 15.82357605 -6.97391301 15.56269287 -9.9375 13.9375 C-11.69366901 10.73507415 -11.62026592 7.50309274 -11 4 C-8.14969659 -0.56048545 -5.12186168 -0.64023271 0 0 Z " fill="#000000" transform="translate(454,356)"/>
<path d="M0 0 C1.91015625 0.4453125 1.91015625 0.4453125 4.47265625 2.5078125 C6.37466577 6.3945276 6.18079195 8.33443229 4.91015625 12.4453125 C2.78515625 14.9453125 2.78515625 14.9453125 -0.08984375 16.4453125 C-3.86894991 16.4453125 -6.09677408 16.27820964 -9.02734375 13.8203125 C-10.52684241 10.46849197 -10.54361848 8.07551032 -10.08984375 4.4453125 C-7.53315462 0.29069266 -4.61630624 -0.25885829 0 0 Z " fill="#000000" transform="translate(463.08984375,336.5546875)"/>
<path d="M0 0 C2.59191186 1.69814915 2.96408796 2.8820033 3.875 5.875 C4.0235372 9.58842999 3.18476995 11.05896353 1 14 C0 15 0 15 -3.8125 15.3125 C-6.78617685 15.25377389 -7.87751147 15.07349312 -10.5 13.5 C-12.75389302 9.74351164 -12.48380069 7.35420619 -12 3 C-8.94544455 -1.50910567 -4.89532431 -1.22383108 0 0 Z " fill="#000000" transform="translate(161,465)"/>
<path d="M0 0 C2.4375 1.5 2.4375 1.5 4 4 C4.81004807 8.07529338 4.65700312 10.98922596 2.375 14.5 C-0.68245535 16.43102443 -2.438173 16.44522837 -6 16 C-8.25 15.4375 -8.25 15.4375 -10 14 C-11.83066825 9.86109787 -12.33931409 7.91614805 -10.75 3.625 C-7.82514802 -0.76227797 -5.07784429 -0.4377452 0 0 Z " fill="#000000" transform="translate(145,450)"/>
</svg>
