<!DOCTYPE svg PUBLIC "-//W3C//DTD SVG 1.1//EN" "http://www.w3.org/Graphics/SVG/1.1/DTD/svg11.dtd">
<!-- Uploaded to: SVG Repo, www.svgrepo.com, Transformed by: SVG Repo Mixer Tools -->
<svg fill="rgba(154, 154, 154, 0.644)" version="1.1" id="Layer_1" xmlns="http://www.w3.org/2000/svg" xmlns:xlink="http://www.w3.org/1999/xlink" viewBox="0 0 512 512" xml:space="preserve" width="800px" height="800px">
<g id="SVGRepo_bgCarrier" stroke-width="0"/>
<g id="SVGRepo_tracerCarrier" stroke-linecap="round" stroke-linejoin="round"/>
<g id="SVGRepo_iconCarrier"> <g> <g> <path d="M439.363,440.844h-87.576v-57.472c0-25.489-9.99-49.516-28.131-67.656c-18.139-18.14-42.167-28.131-67.656-28.131 c-52.817,0-95.786,42.969-95.786,95.786v57.472H72.638V271.165h112.207v-16.421H72.638V216.43h366.725v38.315H327.156v16.421 h112.207v57.468h16.419V216.43h34.682L256.001,0l-98.618,91.033l11.136,12.066l87.482-80.752L448.468,200.01H63.532l88.567-81.753 l-11.138-12.066L21.535,216.43h34.682V512h399.566V350.527h-16.421V440.844z M160.214,495.579H72.638v-38.315h87.576V495.579z M335.365,495.579H176.634V383.372c0.001-43.763,35.604-79.366,79.367-79.366c21.103,0,41.006,8.281,56.044,23.32 c15.038,15.039,23.32,34.943,23.32,56.045V495.579z M439.362,495.579h-87.576v-38.315h87.576V495.579z"/> </g> </g> <g> <g> <path d="M256.001,345.058v-8.21c-0.465,0-46.525,0.658-46.525,57.472h16.421c0-39.421,27.081-41.001,30.169-41.051 L256.001,345.058z"/> </g> </g> <g> <g> <rect x="201.261" y="413.48" width="32.841" height="16.421"/> </g> </g> <g> <g> <rect x="97.264" y="304.01" width="32.841" height="16.421"/> </g> </g> <g> <g> <rect x="381.887" y="304.01" width="32.841" height="16.421"/> </g> </g> <g> <g> <rect x="190.314" y="150.751" width="131.364" height="16.421"/> </g> </g> <g> <g> <rect x="228.629" y="101.49" width="54.735" height="16.421"/> </g> </g> </g>
</svg>